<svg width="313" height="131" viewBox="0 0 313 131" fill="none" xmlns="http://www.w3.org/2000/svg">
<g filter="url(#filter0_d_55_4)">
<rect x="4" width="305" height="123" fill="#B8DAC0"/>
<path d="M18.425 99C17.575 99 16.875 98.725 16.325 98.175C15.775 97.625 15.5 96.925 15.5 96.075V43.35C15.5 42.5 15.775 41.8 16.325 41.25C16.875 40.7 17.575 40.425 18.425 40.425C19.325 40.425 20.075 40.775 20.675 41.475L56.525 88.575V43.35C56.525 42.5 56.8 41.8 57.35 41.25C57.9 40.7 58.6 40.425 59.45 40.425C60.25 40.425 60.925 40.7 61.475 41.25C62.075 41.8 62.375 42.5 62.375 43.35V96.075C62.375 96.925 62.075 97.625 61.475 98.175C60.925 98.725 60.25 99 59.45 99C59.05 99 58.65 98.925 58.25 98.775C57.85 98.625 57.525 98.375 57.275 98.025L21.35 50.925V96.075C21.35 96.925 21.05 97.625 20.45 98.175C19.9 98.725 19.225 99 18.425 99ZM95.2397 99.375C91.1896 99.375 87.5896 98.5 84.4396 96.75C81.3396 94.95 78.8896 92.475 77.0896 89.325C75.3396 86.175 74.4646 82.575 74.4646 78.525C74.4646 74.425 75.2896 70.825 76.9396 67.725C78.6396 64.575 80.9646 62.1 83.9146 60.3C86.8646 58.5 90.2646 57.6 94.1146 57.6C97.9146 57.6 101.215 58.475 104.015 60.225C106.865 61.925 109.065 64.3 110.615 67.35C112.165 70.4 112.94 73.875 112.94 77.775C112.94 78.575 112.69 79.225 112.19 79.725C111.69 80.175 111.04 80.4 110.24 80.4H78.3646V75.6H110.84L107.615 77.925C107.665 75.025 107.14 72.425 106.04 70.125C104.94 67.825 103.365 66.025 101.315 64.725C99.3146 63.425 96.9146 62.775 94.1146 62.775C91.2646 62.775 88.7646 63.45 86.6146 64.8C84.4646 66.15 82.7896 68.025 81.5896 70.425C80.4396 72.775 79.8646 75.475 79.8646 78.525C79.8646 81.575 80.5146 84.275 81.8146 86.625C83.1646 88.975 84.9896 90.825 87.2896 92.175C89.5896 93.525 92.2397 94.2 95.2397 94.2C97.0396 94.2 98.8396 93.9 100.64 93.3C102.49 92.65 103.965 91.85 105.065 90.9C105.615 90.45 106.24 90.225 106.94 90.225C107.64 90.175 108.24 90.35 108.74 90.75C109.39 91.35 109.715 92 109.715 92.7C109.765 93.4 109.49 94 108.89 94.5C107.24 95.9 105.14 97.075 102.59 98.025C100.04 98.925 97.5897 99.375 95.2397 99.375ZM137.034 99.375C134.084 99.375 131.159 98.875 128.259 97.875C125.359 96.875 123.009 95.375 121.209 93.375C120.659 92.775 120.434 92.1 120.534 91.35C120.634 90.6 121.009 89.95 121.659 89.4C122.359 88.9 123.084 88.7 123.834 88.8C124.584 88.9 125.209 89.225 125.709 89.775C126.909 91.175 128.484 92.25 130.434 93C132.434 93.75 134.634 94.125 137.034 94.125C140.734 94.125 143.409 93.5 145.059 92.25C146.709 90.95 147.559 89.4 147.609 87.6C147.609 85.8 146.759 84.325 145.059 83.175C143.359 81.975 140.559 81.05 136.659 80.4C131.609 79.6 127.909 78.2 125.559 76.2C123.209 74.2 122.034 71.825 122.034 69.075C122.034 66.525 122.709 64.4 124.059 62.7C125.409 61 127.209 59.725 129.459 58.875C131.709 58.025 134.184 57.6 136.884 57.6C140.234 57.6 143.109 58.175 145.509 59.325C147.959 60.475 149.934 62.025 151.434 63.975C151.934 64.625 152.134 65.3 152.034 66C151.934 66.7 151.534 67.275 150.834 67.725C150.234 68.075 149.534 68.2 148.734 68.1C147.984 67.95 147.334 67.575 146.784 66.975C145.534 65.525 144.084 64.475 142.434 63.825C140.784 63.125 138.884 62.775 136.734 62.775C133.984 62.775 131.784 63.35 130.134 64.5C128.484 65.6 127.659 67 127.659 68.7C127.659 69.85 127.959 70.85 128.559 71.7C129.209 72.55 130.284 73.3 131.784 73.95C133.334 74.6 135.484 75.15 138.234 75.6C141.984 76.2 144.934 77.1 147.084 78.3C149.284 79.45 150.834 80.825 151.734 82.425C152.684 83.975 153.159 85.675 153.159 87.525C153.159 89.875 152.459 91.95 151.059 93.75C149.709 95.5 147.809 96.875 145.359 97.875C142.959 98.875 140.184 99.375 137.034 99.375ZM179.189 99C176.539 99 174.164 98.375 172.064 97.125C170.014 95.875 168.389 94.175 167.189 92.025C165.989 89.825 165.389 87.325 165.389 84.525V47.85C165.389 47 165.639 46.3 166.139 45.75C166.689 45.2 167.389 44.925 168.239 44.925C169.089 44.925 169.789 45.2 170.339 45.75C170.889 46.3 171.164 47 171.164 47.85V84.525C171.164 87.075 171.914 89.175 173.414 90.825C174.914 92.425 176.839 93.225 179.189 93.225H181.214C182.014 93.225 182.664 93.5 183.164 94.05C183.664 94.6 183.914 95.3 183.914 96.15C183.914 97 183.614 97.7 183.014 98.25C182.414 98.75 181.664 99 180.764 99H179.189ZM160.514 64.5C159.764 64.5 159.139 64.275 158.639 63.825C158.139 63.325 157.889 62.725 157.889 62.025C157.889 61.275 158.139 60.675 158.639 60.225C159.139 59.725 159.764 59.475 160.514 59.475H179.639C180.389 59.475 181.014 59.725 181.514 60.225C182.014 60.675 182.264 61.275 182.264 62.025C182.264 62.725 182.014 63.325 181.514 63.825C181.014 64.275 180.389 64.5 179.639 64.5H160.514ZM202.164 99C200.164 99 198.364 98.45 196.764 97.35C195.214 96.25 193.989 94.725 193.089 92.775C192.239 90.825 191.814 88.575 191.814 86.025V43.275C191.814 42.425 192.064 41.75 192.564 41.25C193.114 40.7 193.814 40.425 194.664 40.425C195.514 40.425 196.189 40.7 196.689 41.25C197.239 41.75 197.514 42.425 197.514 43.275V86.025C197.514 88.175 197.939 89.925 198.789 91.275C199.689 92.625 200.814 93.3 202.164 93.3H204.039C204.789 93.3 205.389 93.575 205.839 94.125C206.289 94.625 206.514 95.3 206.514 96.15C206.514 97 206.189 97.7 205.539 98.25C204.939 98.75 204.139 99 203.139 99H202.164ZM230.811 99.375C226.761 99.375 223.161 98.5 220.011 96.75C216.911 94.95 214.461 92.475 212.661 89.325C210.911 86.175 210.036 82.575 210.036 78.525C210.036 74.425 210.861 70.825 212.511 67.725C214.211 64.575 216.536 62.1 219.486 60.3C222.436 58.5 225.836 57.6 229.686 57.6C233.486 57.6 236.786 58.475 239.586 60.225C242.436 61.925 244.636 64.3 246.186 67.35C247.736 70.4 248.511 73.875 248.511 77.775C248.511 78.575 248.261 79.225 247.761 79.725C247.261 80.175 246.611 80.4 245.811 80.4H213.936V75.6H246.411L243.186 77.925C243.236 75.025 242.711 72.425 241.611 70.125C240.511 67.825 238.936 66.025 236.886 64.725C234.886 63.425 232.486 62.775 229.686 62.775C226.836 62.775 224.336 63.45 222.186 64.8C220.036 66.15 218.361 68.025 217.161 70.425C216.011 72.775 215.436 75.475 215.436 78.525C215.436 81.575 216.086 84.275 217.386 86.625C218.736 88.975 220.561 90.825 222.861 92.175C225.161 93.525 227.811 94.2 230.811 94.2C232.611 94.2 234.411 93.9 236.211 93.3C238.061 92.65 239.536 91.85 240.636 90.9C241.186 90.45 241.811 90.225 242.511 90.225C243.211 90.175 243.811 90.35 244.311 90.75C244.961 91.35 245.286 92 245.286 92.7C245.336 93.4 245.061 94 244.461 94.5C242.811 95.9 240.711 97.075 238.161 98.025C235.611 98.925 233.161 99.375 230.811 99.375ZM275.49 99.375C271.54 99.375 267.99 98.475 264.84 96.675C261.69 94.825 259.19 92.325 257.34 89.175C255.54 86.025 254.64 82.45 254.64 78.45C254.64 74.5 255.515 70.95 257.265 67.8C259.065 64.65 261.49 62.175 264.54 60.375C267.59 58.525 271.04 57.6 274.89 57.6C278.24 57.6 281.265 58.325 283.965 59.775C286.665 61.175 288.84 63.05 290.49 65.4V43.35C290.49 42.45 290.765 41.75 291.315 41.25C291.865 40.7 292.565 40.425 293.415 40.425C294.265 40.425 294.965 40.7 295.515 41.25C296.065 41.75 296.34 42.45 296.34 43.35V78.75C296.24 82.65 295.265 86.175 293.415 89.325C291.615 92.425 289.14 94.875 285.99 96.675C282.89 98.475 279.39 99.375 275.49 99.375ZM275.49 94.125C278.39 94.125 280.965 93.45 283.215 92.1C285.515 90.7 287.315 88.825 288.615 86.475C289.965 84.125 290.64 81.45 290.64 78.45C290.64 75.5 289.965 72.85 288.615 70.5C287.315 68.1 285.515 66.225 283.215 64.875C280.965 63.525 278.39 62.85 275.49 62.85C272.64 62.85 270.065 63.525 267.765 64.875C265.465 66.225 263.64 68.1 262.29 70.5C260.94 72.85 260.265 75.5 260.265 78.45C260.265 81.45 260.94 84.125 262.29 86.475C263.64 88.825 265.465 90.7 267.765 92.1C270.065 93.45 272.64 94.125 275.49 94.125Z" fill="#E1B1B1"/>
<path d="M16.325 98.175L17.0321 97.4679L17.0321 97.4679L16.325 98.175ZM16.325 41.25L17.0321 41.9571L17.0321 41.9571L16.325 41.25ZM20.675 41.475L21.4707 40.8693L21.4531 40.8462L21.4343 40.8242L20.675 41.475ZM56.525 88.575L55.7293 89.1807L57.525 91.5399V88.575H56.525ZM57.35 41.25L58.0571 41.9571L58.0571 41.9571L57.35 41.25ZM61.475 41.25L60.7679 41.9571L60.7833 41.9725L60.7993 41.9872L61.475 41.25ZM61.475 98.175L60.7993 97.4378L60.7833 97.4525L60.7679 97.4679L61.475 98.175ZM58.25 98.775L57.8989 99.7113L57.8989 99.7113L58.25 98.775ZM57.275 98.025L58.0887 97.4438L58.0796 97.431L58.0701 97.4185L57.275 98.025ZM21.35 50.925L22.1451 50.3185L20.35 47.965V50.925H21.35ZM20.45 98.175L19.7743 97.4378L19.7583 97.4525L19.7429 97.4679L20.45 98.175ZM18.425 98C17.8131 98 17.3762 97.812 17.0321 97.4679L15.6179 98.8821C16.3738 99.638 17.3369 100 18.425 100V98ZM17.0321 97.4679C16.688 97.1238 16.5 96.6869 16.5 96.075H14.5C14.5 97.1631 14.862 98.1262 15.6179 98.8821L17.0321 97.4679ZM16.5 96.075V43.35H14.5V96.075H16.5ZM16.5 43.35C16.5 42.7381 16.688 42.3012 17.0321 41.9571L15.6179 40.5429C14.862 41.2988 14.5 42.2619 14.5 43.35H16.5ZM17.0321 41.9571C17.3762 41.613 17.8131 41.425 18.425 41.425V39.425C17.3369 39.425 16.3738 39.787 15.6179 40.5429L17.0321 41.9571ZM18.425 41.425C19.025 41.425 19.5004 41.6412 19.9157 42.1258L21.4343 40.8242C20.6496 39.9088 19.625 39.425 18.425 39.425V41.425ZM19.8793 42.0807L55.7293 89.1807L57.3207 87.9693L21.4707 40.8693L19.8793 42.0807ZM57.525 88.575V43.35H55.525V88.575H57.525ZM57.525 43.35C57.525 42.7381 57.713 42.3012 58.0571 41.9571L56.6429 40.5429C55.887 41.2987 55.525 42.2619 55.525 43.35H57.525ZM58.0571 41.9571C58.4012 41.613 58.8381 41.425 59.45 41.425V39.425C58.3619 39.425 57.3988 39.787 56.6429 40.5429L58.0571 41.9571ZM59.45 41.425C59.9932 41.425 60.4113 41.6005 60.7679 41.9571L62.1821 40.5429C61.4387 39.7995 60.5068 39.425 59.45 39.425V41.425ZM60.7993 41.9872C61.1825 42.3385 61.375 42.7663 61.375 43.35H63.375C63.375 42.2337 62.9675 41.2615 62.1507 40.5128L60.7993 41.9872ZM61.375 43.35V96.075H63.375V43.35H61.375ZM61.375 96.075C61.375 96.6587 61.1825 97.0865 60.7993 97.4378L62.1507 98.9122C62.9675 98.1635 63.375 97.1913 63.375 96.075H61.375ZM60.7679 97.4679C60.4113 97.8245 59.9932 98 59.45 98V100C60.5068 100 61.4387 99.6255 62.1821 98.8821L60.7679 97.4679ZM59.45 98C59.1779 98 58.8965 97.9495 58.6011 97.8387L57.8989 99.7113C58.4035 99.9005 58.9221 100 59.45 100V98ZM58.6011 97.8387C58.3885 97.759 58.2241 97.6332 58.0887 97.4438L56.4613 98.6062C56.8259 99.1168 57.3115 99.491 57.8989 99.7113L58.6011 97.8387ZM58.0701 97.4185L22.1451 50.3185L20.5549 51.5315L56.4799 98.6315L58.0701 97.4185ZM20.35 50.925V96.075H22.35V50.925H20.35ZM20.35 96.075C20.35 96.6587 20.1575 97.0865 19.7743 97.4378L21.1257 98.9122C21.9425 98.1635 22.35 97.1913 22.35 96.075H20.35ZM19.7429 97.4679C19.3863 97.8245 18.9682 98 18.425 98V100C19.4818 100 20.4137 99.6255 21.1571 98.8821L19.7429 97.4679ZM84.4396 96.75L83.9375 97.6148L83.9457 97.6196L83.954 97.6242L84.4396 96.75ZM77.0896 89.325L76.2154 89.8107L76.2214 89.8211L77.0896 89.325ZM76.9396 67.725L76.0596 67.2501L76.0569 67.2551L76.9396 67.725ZM104.015 60.225L103.485 61.073L103.493 61.0785L103.502 61.0838L104.015 60.225ZM110.615 67.35L111.506 66.8969L111.506 66.8969L110.615 67.35ZM112.19 79.725L112.859 80.4683L112.878 80.4507L112.897 80.4321L112.19 79.725ZM78.3646 80.4H77.3646V81.4H78.3646V80.4ZM78.3646 75.6V74.6H77.3646V75.6H78.3646ZM110.84 75.6L111.424 76.4112L113.937 74.6H110.84V75.6ZM107.615 77.925L106.615 77.9078L106.58 79.9034L108.199 78.7362L107.615 77.925ZM106.04 70.125L106.942 69.6935L106.942 69.6935L106.04 70.125ZM101.315 64.725L100.77 65.5635L100.779 65.5695L101.315 64.725ZM86.6146 64.8L86.0829 63.9531L86.0829 63.9531L86.6146 64.8ZM81.5896 70.425L80.6952 69.9778L80.6914 69.9854L81.5896 70.425ZM81.8146 86.625L80.9396 87.1091L80.9435 87.1161L80.9475 87.1231L81.8146 86.625ZM87.2896 92.175L86.7834 93.0374L86.7834 93.0374L87.2896 92.175ZM100.64 93.3L100.956 94.2487L100.964 94.2461L100.971 94.2435L100.64 93.3ZM105.065 90.9L104.431 90.126L104.421 90.1345L104.411 90.1432L105.065 90.9ZM106.94 90.225V91.225H106.975L107.011 91.2225L106.94 90.225ZM108.74 90.75L109.418 90.0152L109.392 89.9912L109.364 89.9691L108.74 90.75ZM109.715 92.7H108.715V92.7357L108.717 92.7712L109.715 92.7ZM108.89 94.5L108.249 93.7317L108.243 93.7375L108.89 94.5ZM102.59 98.025L102.922 98.968L102.931 98.9651L102.939 98.9621L102.59 98.025ZM95.2397 98.375C91.3382 98.375 87.9091 97.5335 84.9253 95.8758L83.954 97.6242C87.2702 99.4665 91.0411 100.375 95.2397 100.375V98.375ZM84.9418 95.8852C81.9961 94.1748 79.6716 91.8278 77.9579 88.8289L76.2214 89.8211C78.1077 93.1222 80.6832 95.7252 83.9375 97.6148L84.9418 95.8852ZM77.9638 88.8394C76.3062 85.8556 75.4646 82.4265 75.4646 78.525H73.4646C73.4646 82.7235 74.3731 86.4944 76.2155 89.8106L77.9638 88.8394ZM75.4646 78.525C75.4646 74.5613 76.2614 71.1277 77.8224 68.1948L76.0569 67.2551C74.3179 70.5223 73.4646 74.2887 73.4646 78.525H75.4646ZM77.8197 68.1999C79.4387 65.1999 81.6422 62.858 84.4355 61.1536L83.3938 59.4464C80.2871 61.342 77.8406 63.9501 76.0596 67.2501L77.8197 68.1999ZM84.4355 61.1536C87.2112 59.46 90.4269 58.6 94.1146 58.6V56.6C90.1024 56.6 86.5181 57.54 83.3938 59.4464L84.4355 61.1536ZM94.1146 58.6C97.7561 58.6 100.866 59.4366 103.485 61.073L104.545 59.377C101.563 57.5134 98.0732 56.6 94.1146 56.6V58.6ZM103.502 61.0838C106.185 62.684 108.256 64.9159 109.723 67.803L111.506 66.8969C109.873 63.6841 107.544 61.166 104.527 59.3662L103.502 61.0838ZM109.723 67.803C111.192 70.6942 111.94 74.0103 111.94 77.775H113.94C113.94 73.7397 113.137 70.1058 111.506 66.8969L109.723 67.803ZM111.94 77.775C111.94 78.3478 111.77 78.7307 111.483 79.0179L112.897 80.4321C113.61 79.7193 113.94 78.8022 113.94 77.775H111.94ZM111.521 78.9817C111.238 79.2361 110.842 79.4 110.24 79.4V81.4C111.237 81.4 112.141 81.1139 112.859 80.4683L111.521 78.9817ZM110.24 79.4H78.3646V81.4H110.24V79.4ZM79.3646 80.4V75.6H77.3646V80.4H79.3646ZM78.3646 76.6H110.84V74.6H78.3646V76.6ZM110.255 74.7888L107.03 77.1138L108.199 78.7362L111.424 76.4112L110.255 74.7888ZM108.615 77.9422C108.667 74.9086 108.117 72.1517 106.942 69.6935L105.138 70.5565C106.162 72.6983 106.662 75.1414 106.615 77.9078L108.615 77.9422ZM106.942 69.6935C105.765 67.2331 104.067 65.2862 101.85 63.8805L100.779 65.5695C102.662 66.7638 104.114 68.4169 105.138 70.5565L106.942 69.6935ZM101.86 63.8866C99.6709 62.4639 97.0738 61.775 94.1146 61.775V63.775C96.7555 63.775 98.9584 64.3861 100.77 65.5634L101.86 63.8866ZM94.1146 61.775C91.1003 61.775 88.4112 62.4912 86.0829 63.9531L87.1464 65.6469C89.1181 64.4088 91.429 63.775 94.1146 63.775V61.775ZM86.0829 63.9531C83.7687 65.4062 81.9723 67.4236 80.6952 69.9778L82.4841 70.8722C83.607 68.6264 85.1606 66.8938 87.1464 65.6469L86.0829 63.9531ZM80.6914 69.9854C79.4642 72.4932 78.8646 75.3478 78.8646 78.525H80.8646C80.8646 75.6022 81.4151 73.0567 82.4879 70.8646L80.6914 69.9854ZM78.8646 78.525C78.8646 81.721 79.5471 84.5918 80.9396 87.1091L82.6897 86.1409C81.4822 83.9582 80.8646 81.429 80.8646 78.525H78.8646ZM80.9475 87.1231C82.3827 89.6213 84.331 91.5979 86.7834 93.0374L87.7958 91.3126C85.6483 90.0521 83.9466 88.3287 82.6818 86.1269L80.9475 87.1231ZM86.7834 93.0374C89.2554 94.4883 92.0844 95.2 95.2397 95.2V93.2C92.3949 93.2 89.9239 92.5617 87.7958 91.3126L86.7834 93.0374ZM95.2397 95.2C97.1528 95.2 99.0595 94.8808 100.956 94.2487L100.323 92.3513C98.6198 92.9192 96.9265 93.2 95.2397 93.2V95.2ZM100.971 94.2435C102.901 93.5656 104.497 92.7118 105.718 91.6568L104.411 90.1432C103.433 90.9882 102.079 91.7344 100.308 92.3565L100.971 94.2435ZM105.698 91.674C106.072 91.3677 106.474 91.225 106.94 91.225V89.225C106.005 89.225 105.157 89.5323 104.431 90.126L105.698 91.674ZM107.011 91.2225C107.486 91.1885 107.831 91.3037 108.115 91.5309L109.364 89.9691C108.648 89.3963 107.793 89.1615 106.868 89.2275L107.011 91.2225ZM108.061 91.4848C108.564 91.9487 108.715 92.3489 108.715 92.7H110.715C110.715 91.6511 110.215 90.7513 109.418 90.0152L108.061 91.4848ZM108.717 92.7712C108.741 93.1104 108.635 93.4108 108.249 93.7318L109.53 95.2682C110.345 94.5892 110.788 93.6896 110.712 92.6288L108.717 92.7712ZM108.243 93.7375C106.701 95.046 104.709 96.1684 102.241 97.0879L102.939 98.9621C105.571 97.9816 107.779 96.754 109.537 95.2625L108.243 93.7375ZM102.257 97.082C99.7979 97.9499 97.4606 98.375 95.2397 98.375V100.375C97.7187 100.375 100.281 99.9001 102.922 98.968L102.257 97.082ZM128.259 97.875L127.933 98.8204L127.933 98.8204L128.259 97.875ZM121.209 93.375L121.952 92.706L121.946 92.6993L121.209 93.375ZM120.534 91.35L121.525 91.4822L121.525 91.4822L120.534 91.35ZM121.659 89.4L121.078 88.5863L121.044 88.6101L121.013 88.6366L121.659 89.4ZM125.709 89.775L126.468 89.1242L126.459 89.1131L126.449 89.1023L125.709 89.775ZM130.434 93L130.075 93.9334L130.083 93.9363L130.434 93ZM145.059 92.25L145.663 93.0471L145.67 93.0414L145.678 93.0355L145.059 92.25ZM147.609 87.6L148.609 87.6278L148.609 87.6139V87.6H147.609ZM145.059 83.175L144.482 83.992L144.49 83.9977L144.499 84.0033L145.059 83.175ZM136.659 80.4L136.823 79.4136L136.815 79.4123L136.659 80.4ZM125.559 76.2L126.207 75.4385L126.207 75.4385L125.559 76.2ZM124.059 62.7L123.276 62.0781L123.276 62.0781L124.059 62.7ZM145.509 59.325L145.077 60.2268L145.084 60.2302L145.509 59.325ZM151.434 63.975L150.641 64.5847L150.641 64.5847L151.434 63.975ZM152.034 66L153.024 66.1414L153.024 66.1414L152.034 66ZM150.834 67.725L151.338 68.5888L151.357 68.5779L151.375 68.5662L150.834 67.725ZM148.734 68.1L148.538 69.0806L148.574 69.0877L148.61 69.0923L148.734 68.1ZM146.784 66.975L146.027 67.6279L146.037 67.6395L146.047 67.6507L146.784 66.975ZM142.434 63.825L142.043 64.7456L142.055 64.7507L142.067 64.7554L142.434 63.825ZM130.134 64.5L130.689 65.332L130.697 65.3263L130.706 65.3204L130.134 64.5ZM128.559 71.7L127.742 72.2767L127.753 72.2923L127.765 72.3074L128.559 71.7ZM131.784 73.95L131.386 74.8676L131.397 74.8722L131.784 73.95ZM138.234 75.6L138.072 76.5869L138.076 76.5874L138.234 75.6ZM147.084 78.3L146.597 79.1732L146.609 79.1799L146.621 79.1862L147.084 78.3ZM151.734 82.425L150.862 82.9153L150.872 82.9316L150.881 82.9476L151.734 82.425ZM151.059 93.75L150.27 93.1361L150.267 93.1392L151.059 93.75ZM145.359 97.875L144.981 96.9491L144.974 96.9519L145.359 97.875ZM137.034 98.375C134.199 98.375 131.384 97.8949 128.585 96.9296L127.933 98.8204C130.934 99.8551 133.969 100.375 137.034 100.375V98.375ZM128.585 96.9296C125.823 95.9771 123.624 94.5633 121.952 92.706L120.466 94.044C122.394 96.1867 124.895 97.7729 127.933 98.8204L128.585 96.9296ZM121.946 92.6993C121.579 92.2988 121.468 91.9141 121.525 91.4822L119.543 91.2178C119.4 92.2859 119.739 93.2512 120.472 94.0507L121.946 92.6993ZM121.525 91.4822C121.588 91.0094 121.819 90.5747 122.305 90.1634L121.013 88.6366C120.199 89.3253 119.68 90.1906 119.543 91.2178L121.525 91.4822ZM122.24 90.2137C122.764 89.8396 123.238 89.7294 123.702 89.7912L123.966 87.8088C122.93 87.6706 121.954 87.9604 121.078 88.5863L122.24 90.2137ZM123.702 89.7912C124.223 89.8607 124.631 90.0756 124.969 90.4477L126.449 89.1023C125.787 88.3744 124.945 87.9393 123.966 87.8088L123.702 89.7912ZM124.95 90.4258C126.271 91.9677 127.991 93.1318 130.075 93.9333L130.793 92.0667C128.977 91.3682 127.547 90.3823 126.468 89.1242L124.95 90.4258ZM130.083 93.9363C132.208 94.7333 134.529 95.125 137.034 95.125V93.125C134.739 93.125 132.66 92.7667 130.785 92.0637L130.083 93.9363ZM137.034 95.125C140.8 95.125 143.748 94.4977 145.663 93.0471L144.455 91.4529C143.07 92.5023 140.668 93.125 137.034 93.125V95.125ZM145.678 93.0355C147.518 91.5859 148.549 89.7752 148.609 87.6278L146.609 87.5722C146.569 89.0248 145.9 90.3141 144.44 91.4645L145.678 93.0355ZM148.609 87.6C148.609 85.4173 147.549 83.6523 145.619 82.3467L144.499 84.0033C145.969 84.9976 146.609 86.1827 146.609 87.6H148.609ZM145.636 82.358C143.746 81.0241 140.762 80.07 136.823 79.4136L136.495 81.3864C140.356 82.03 142.972 82.9259 144.482 83.992L145.636 82.358ZM136.815 79.4123C131.84 78.6242 128.353 77.2648 126.207 75.4385L124.911 76.9615C127.465 79.1352 131.378 80.5758 136.503 81.3877L136.815 79.4123ZM126.207 75.4385C124.05 73.6024 123.034 71.4939 123.034 69.075H121.034C121.034 72.1561 122.368 74.7976 124.911 76.9615L126.207 75.4385ZM123.034 69.075C123.034 66.7097 123.656 64.8153 124.842 63.3219L123.276 62.0781C121.762 63.9847 121.034 66.3403 121.034 69.075H123.034ZM124.842 63.3219C126.068 61.7782 127.713 60.6037 129.812 59.8105L129.106 57.9395C126.705 58.8463 124.75 60.2218 123.276 62.0781L124.842 63.3219ZM129.812 59.8105C131.936 59.008 134.29 58.6 136.884 58.6V56.6C134.078 56.6 131.482 57.042 129.106 57.9395L129.812 59.8105ZM136.884 58.6C140.122 58.6 142.842 59.1559 145.077 60.2268L145.941 58.4232C143.376 57.1941 140.346 56.6 136.884 56.6V58.6ZM145.084 60.2302C147.404 61.3194 149.248 62.7734 150.641 64.5847L152.227 63.3653C150.62 61.2766 148.514 59.6306 145.934 58.4198L145.084 60.2302ZM150.641 64.5847C151.006 65.0582 151.1 65.4683 151.044 65.8586L153.024 66.1414C153.168 65.1317 152.862 64.1918 152.227 63.3653L150.641 64.5847ZM151.044 65.8586C150.992 66.2195 150.797 66.5602 150.293 66.8838L151.375 68.5662C152.271 67.9898 152.875 67.1805 153.024 66.1414L151.044 65.8586ZM150.33 66.8612C149.949 67.0835 149.477 67.1851 148.858 67.1077L148.61 69.0923C149.591 69.2149 150.519 69.0665 151.338 68.5888L150.33 66.8612ZM148.93 67.1194C148.402 67.0138 147.937 66.7535 147.521 66.2993L146.047 67.6507C146.73 68.3965 147.566 68.8862 148.538 69.0806L148.93 67.1194ZM147.541 66.3221C146.194 64.7593 144.613 63.6087 142.801 62.8946L142.067 64.7554C143.555 65.3413 144.874 66.2907 146.027 67.6279L147.541 66.3221ZM142.825 62.9044C141.029 62.1427 138.992 61.775 136.734 61.775V63.775C138.776 63.775 140.539 64.1073 142.043 64.7456L142.825 62.9044ZM136.734 61.775C133.853 61.775 131.431 62.3768 129.562 63.6796L130.706 65.3204C132.137 64.3232 134.115 63.775 136.734 63.775V61.775ZM129.579 63.6679C127.705 64.9176 126.659 66.6059 126.659 68.7H128.659C128.659 67.3941 129.263 66.2824 130.689 65.332L129.579 63.6679ZM126.659 68.7C126.659 70.0338 127.01 71.2403 127.742 72.2767L129.376 71.1233C128.908 70.4597 128.659 69.6662 128.659 68.7H126.659ZM127.765 72.3074C128.559 73.3461 129.806 74.1825 131.386 74.8676L132.182 73.0324C130.762 72.4175 129.859 71.7539 129.353 71.0925L127.765 72.3074ZM131.397 74.8722C133.051 75.5658 135.289 76.1313 138.072 76.5869L138.395 74.6131C135.679 74.1687 133.617 73.6342 132.171 73.0278L131.397 74.8722ZM138.076 76.5874C141.766 77.1779 144.589 78.0525 146.597 79.1732L147.571 77.4268C145.279 76.1475 142.202 75.2221 138.392 74.6126L138.076 76.5874ZM146.621 79.1862C148.708 80.2773 150.085 81.5338 150.862 82.9153L152.606 81.9347C151.583 80.1162 149.86 78.6227 147.547 77.4138L146.621 79.1862ZM150.881 82.9476C151.733 84.3374 152.159 85.856 152.159 87.525H154.159C154.159 85.494 153.635 83.6126 152.587 81.9024L150.881 82.9476ZM152.159 87.525C152.159 89.66 151.529 91.5173 150.27 93.1361L151.848 94.3639C153.389 92.3827 154.159 90.09 154.159 87.525H152.159ZM150.267 93.1392C149.044 94.7243 147.3 96.0026 144.981 96.9492L145.737 98.8008C148.318 97.7474 150.374 96.2757 151.851 94.3608L150.267 93.1392ZM144.974 96.9519C142.719 97.8916 140.079 98.375 137.034 98.375V100.375C140.289 100.375 143.199 99.8584 145.744 98.7981L144.974 96.9519ZM172.064 97.125L171.543 97.9788L171.552 97.9843L172.064 97.125ZM167.189 92.025L166.311 92.5039L166.315 92.5124L167.189 92.025ZM166.139 45.75L165.432 45.0429L165.415 45.0597L165.399 45.0773L166.139 45.75ZM170.339 45.75L169.632 46.4571L169.632 46.4571L170.339 45.75ZM173.414 90.825L172.674 91.4977L172.679 91.5033L172.684 91.5089L173.414 90.825ZM183.164 94.05L183.904 93.3773L183.904 93.3773L183.164 94.05ZM183.014 98.25L183.654 99.0182L183.672 99.0031L183.689 98.9872L183.014 98.25ZM158.639 63.825L157.932 64.5321L157.95 64.5507L157.97 64.5683L158.639 63.825ZM158.639 60.225L159.308 60.9683L159.327 60.9507L159.346 60.9321L158.639 60.225ZM181.514 60.225L180.807 60.9321L180.825 60.9507L180.845 60.9683L181.514 60.225ZM181.514 63.825L182.183 64.5683L182.202 64.5507L182.221 64.5321L181.514 63.825ZM179.189 98C176.703 98 174.507 97.4159 172.575 96.2657L171.552 97.9843C173.82 99.3341 176.374 100 179.189 100V98ZM172.584 96.2712C170.685 95.1133 169.18 93.5412 168.062 91.5376L166.315 92.5124C167.597 94.8088 169.342 96.6367 171.543 97.9788L172.584 96.2712ZM168.067 91.5461C166.956 89.5096 166.389 87.1777 166.389 84.525H164.389C164.389 87.4723 165.022 90.1404 166.311 92.5039L168.067 91.5461ZM166.389 84.525V47.85H164.389V84.525H166.389ZM166.389 47.85C166.389 47.2105 166.57 46.7621 166.879 46.4227L165.399 45.0773C164.707 45.8379 164.389 46.7895 164.389 47.85H166.389ZM166.846 46.4571C167.19 46.113 167.627 45.925 168.239 45.925V43.925C167.151 43.925 166.187 44.287 165.432 45.0429L166.846 46.4571ZM168.239 45.925C168.851 45.925 169.287 46.113 169.632 46.4571L171.046 45.0429C170.29 44.287 169.327 43.925 168.239 43.925V45.925ZM169.632 46.4571C169.976 46.8012 170.164 47.2381 170.164 47.85H172.164C172.164 46.7619 171.802 45.7988 171.046 45.0429L169.632 46.4571ZM170.164 47.85V84.525H172.164V47.85H170.164ZM170.164 84.525C170.164 87.2855 170.982 89.6371 172.674 91.4977L174.154 90.1523C172.845 88.7129 172.164 86.8645 172.164 84.525H170.164ZM172.684 91.5089C174.388 93.3262 176.584 94.225 179.189 94.225V92.225C177.093 92.225 175.44 91.5238 174.143 90.1411L172.684 91.5089ZM179.189 94.225H181.214V92.225H179.189V94.225ZM181.214 94.225C181.756 94.225 182.129 94.3984 182.424 94.7227L183.904 93.3773C183.198 92.6016 182.271 92.225 181.214 92.225V94.225ZM182.424 94.7227C182.732 95.0621 182.914 95.5105 182.914 96.15H184.914C184.914 95.0895 184.595 94.1379 183.904 93.3773L182.424 94.7227ZM182.914 96.15C182.914 96.7337 182.721 97.1615 182.338 97.5128L183.689 98.9872C184.506 98.2385 184.914 97.2663 184.914 96.15H182.914ZM182.373 97.4818C181.98 97.8096 181.467 98 180.764 98V100C181.86 100 182.847 99.6904 183.654 99.0182L182.373 97.4818ZM180.764 98H179.189V100H180.764V98ZM160.514 63.5C159.98 63.5 159.602 63.3471 159.308 63.0817L157.97 64.5683C158.675 65.2029 159.547 65.5 160.514 65.5V63.5ZM159.346 63.1179C159.031 62.8033 158.889 62.4568 158.889 62.025H156.889C156.889 62.9932 157.246 63.8467 157.932 64.5321L159.346 63.1179ZM158.889 62.025C158.889 61.5222 159.044 61.2057 159.308 60.9683L157.97 59.4817C157.233 60.1443 156.889 61.0278 156.889 62.025H158.889ZM159.346 60.9321C159.646 60.6319 160.011 60.475 160.514 60.475V58.475C159.516 58.475 158.631 58.8181 157.932 59.5179L159.346 60.9321ZM160.514 60.475H179.639V58.475H160.514V60.475ZM179.639 60.475C180.141 60.475 180.506 60.6319 180.807 60.9321L182.221 59.5179C181.521 58.8181 180.636 58.475 179.639 58.475V60.475ZM180.845 60.9683C181.108 61.2057 181.264 61.5222 181.264 62.025H183.264C183.264 61.0278 182.919 60.1443 182.183 59.4817L180.845 60.9683ZM181.264 62.025C181.264 62.4568 181.121 62.8033 180.807 63.1179L182.221 64.5321C182.906 63.8467 183.264 62.9932 183.264 62.025H181.264ZM180.845 63.0817C180.55 63.3471 180.172 63.5 179.639 63.5V65.5C180.605 65.5 181.477 65.2029 182.183 64.5683L180.845 63.0817ZM179.639 63.5H160.514V65.5H179.639V63.5ZM196.764 97.35L196.186 98.1655L196.192 98.1698L196.198 98.174L196.764 97.35ZM193.089 92.775L192.173 93.1746L192.177 93.1844L192.181 93.1941L193.089 92.775ZM192.564 41.25L191.857 40.5429L191.857 40.5429L192.564 41.25ZM196.689 41.25L195.95 41.9227L195.982 41.9579L196.017 41.9899L196.689 41.25ZM198.789 91.275L197.943 91.8078L197.95 91.8188L197.957 91.8297L198.789 91.275ZM205.839 94.125L205.065 94.7582L205.08 94.7765L205.096 94.794L205.839 94.125ZM205.539 98.25L206.18 99.0182L206.185 99.0134L205.539 98.25ZM202.164 98C200.36 98 198.759 97.5077 197.331 96.526L196.198 98.174C197.97 99.3923 199.969 100 202.164 100V98ZM197.343 96.5345C195.953 95.5482 194.834 94.1683 193.997 92.3559L192.181 93.1941C193.145 95.2817 194.475 96.9518 196.186 98.1655L197.343 96.5345ZM194.006 92.3754C193.221 90.5739 192.814 88.4643 192.814 86.025H190.814C190.814 88.6857 191.258 91.0761 192.173 93.1746L194.006 92.3754ZM192.814 86.025V43.275H190.814V86.025H192.814ZM192.814 43.275C192.814 42.6329 192.996 42.2326 193.272 41.9571L191.857 40.5429C191.133 41.2674 190.814 42.2171 190.814 43.275H192.814ZM193.272 41.9571C193.616 41.613 194.053 41.425 194.664 41.425V39.425C193.576 39.425 192.613 39.787 191.857 40.5429L193.272 41.9571ZM194.664 41.425C195.277 41.425 195.667 41.612 195.95 41.9227L197.429 40.5773C196.712 39.788 195.752 39.425 194.664 39.425V41.425ZM196.017 41.9899C196.327 42.2723 196.514 42.6621 196.514 43.275H198.514C198.514 42.1879 198.151 41.2276 197.362 40.5101L196.017 41.9899ZM196.514 43.275V86.025H198.514V43.275H196.514ZM196.514 86.025C196.514 88.2999 196.964 90.2518 197.943 91.8078L199.636 90.7422C198.915 89.5982 198.514 88.0501 198.514 86.025H196.514ZM197.957 91.8297C199 93.3934 200.409 94.3 202.164 94.3V92.3C201.22 92.3 200.379 91.8566 199.622 90.7203L197.957 91.8297ZM202.164 94.3H204.039V92.3H202.164V94.3ZM204.039 94.3C204.509 94.3 204.817 94.4548 205.065 94.7582L206.613 93.4918C205.962 92.6952 205.07 92.3 204.039 92.3V94.3ZM205.096 94.794C205.341 95.0657 205.514 95.4796 205.514 96.15H207.514C207.514 95.1204 207.238 94.1843 206.583 93.456L205.096 94.794ZM205.514 96.15C205.514 96.7053 205.319 97.1262 204.894 97.4866L206.185 99.0134C207.059 98.2738 207.514 97.2947 207.514 96.15H205.514ZM204.899 97.4818C204.524 97.7941 203.972 98 203.139 98V100C204.306 100 205.354 99.7059 206.18 99.0182L204.899 97.4818ZM203.139 98H202.164V100H203.139V98ZM220.011 96.75L219.509 97.6148L219.517 97.6196L219.525 97.6242L220.011 96.75ZM212.661 89.325L211.787 89.8107L211.793 89.8211L212.661 89.325ZM212.511 67.725L211.631 67.2501L211.628 67.2551L212.511 67.725ZM239.586 60.225L239.056 61.073L239.065 61.0785L239.074 61.0838L239.586 60.225ZM246.186 67.35L247.077 66.8969L247.077 66.8969L246.186 67.35ZM247.761 79.725L248.43 80.4683L248.449 80.4507L248.468 80.4321L247.761 79.725ZM213.936 80.4H212.936V81.4H213.936V80.4ZM213.936 75.6V74.6H212.936V75.6H213.936ZM246.411 75.6L246.996 76.4112L249.508 74.6H246.411V75.6ZM243.186 77.925L242.186 77.9078L242.152 79.9034L243.771 78.7362L243.186 77.925ZM241.611 70.125L242.513 69.6935L242.513 69.6935L241.611 70.125ZM236.886 64.725L236.341 65.5635L236.35 65.5695L236.886 64.725ZM222.186 64.8L221.654 63.9531L221.654 63.9531L222.186 64.8ZM217.161 70.425L216.266 69.9778L216.263 69.9854L217.161 70.425ZM217.386 86.625L216.511 87.1091L216.515 87.1161L216.519 87.1231L217.386 86.625ZM222.861 92.175L222.355 93.0374L222.355 93.0374L222.861 92.175ZM236.211 93.3L236.527 94.2487L236.535 94.2461L236.542 94.2435L236.211 93.3ZM240.636 90.9L240.003 90.126L239.992 90.1345L239.982 90.1432L240.636 90.9ZM242.511 90.225V91.225H242.547L242.582 91.2225L242.511 90.225ZM244.311 90.75L244.989 90.0152L244.963 89.9912L244.936 89.9691L244.311 90.75ZM245.286 92.7H244.286V92.7357L244.288 92.7712L245.286 92.7ZM244.461 94.5L243.821 93.7317L243.814 93.7375L244.461 94.5ZM238.161 98.025L238.494 98.968L238.502 98.9651L238.51 98.9621L238.161 98.025ZM230.811 98.375C226.909 98.375 223.48 97.5335 220.497 95.8758L219.525 97.6242C222.842 99.4665 226.612 100.375 230.811 100.375V98.375ZM220.513 95.8852C217.567 94.1748 215.243 91.8278 213.529 88.8289L211.793 89.8211C213.679 93.1222 216.254 95.7252 219.509 97.6148L220.513 95.8852ZM213.535 88.8394C211.877 85.8556 211.036 82.4265 211.036 78.525H209.036C209.036 82.7235 209.944 86.4944 211.787 89.8106L213.535 88.8394ZM211.036 78.525C211.036 74.5613 211.833 71.1277 213.394 68.1948L211.628 67.2551C209.889 70.5223 209.036 74.2887 209.036 78.525H211.036ZM213.391 68.1999C215.01 65.1999 217.213 62.858 220.007 61.1536L218.965 59.4464C215.858 61.342 213.412 63.9501 211.631 67.2501L213.391 68.1999ZM220.007 61.1536C222.782 59.46 225.998 58.6 229.686 58.6V56.6C225.674 56.6 222.089 57.54 218.965 59.4464L220.007 61.1536ZM229.686 58.6C233.327 58.6 236.438 59.4366 239.056 61.073L240.116 59.377C237.134 57.5134 233.644 56.6 229.686 56.6V58.6ZM239.074 61.0838C241.756 62.684 243.827 64.9159 245.294 67.803L247.077 66.8969C245.445 63.6841 243.116 61.166 240.098 59.3662L239.074 61.0838ZM245.294 67.803C246.764 70.6942 247.511 74.0103 247.511 77.775H249.511C249.511 73.7397 248.708 70.1058 247.077 66.8969L245.294 67.803ZM247.511 77.775C247.511 78.3478 247.341 78.7307 247.054 79.0179L248.468 80.4321C249.181 79.7193 249.511 78.8022 249.511 77.775H247.511ZM247.092 78.9817C246.809 79.2361 246.413 79.4 245.811 79.4V81.4C246.809 81.4 247.713 81.1139 248.43 80.4683L247.092 78.9817ZM245.811 79.4H213.936V81.4H245.811V79.4ZM214.936 80.4V75.6H212.936V80.4H214.936ZM213.936 76.6H246.411V74.6H213.936V76.6ZM245.826 74.7888L242.601 77.1138L243.771 78.7362L246.996 76.4112L245.826 74.7888ZM244.186 77.9422C244.238 74.9086 243.689 72.1517 242.513 69.6935L240.709 70.5565C241.733 72.6983 242.234 75.1414 242.186 77.9078L244.186 77.9422ZM242.513 69.6935C241.336 67.2331 239.638 65.2862 237.421 63.8805L236.35 65.5695C238.234 66.7638 239.686 68.4169 240.709 70.5565L242.513 69.6935ZM237.431 63.8866C235.242 62.4639 232.645 61.775 229.686 61.775V63.775C232.327 63.775 234.53 64.3861 236.341 65.5634L237.431 63.8866ZM229.686 61.775C226.672 61.775 223.982 62.4912 221.654 63.9531L222.718 65.6469C224.689 64.4088 227 63.775 229.686 63.775V61.775ZM221.654 63.9531C219.34 65.4062 217.544 67.4236 216.267 69.9778L218.055 70.8722C219.178 68.6264 220.732 66.8938 222.718 65.6469L221.654 63.9531ZM216.263 69.9854C215.035 72.4932 214.436 75.3478 214.436 78.525H216.436C216.436 75.6022 216.986 73.0567 218.059 70.8646L216.263 69.9854ZM214.436 78.525C214.436 81.721 215.118 84.5918 216.511 87.1091L218.261 86.1409C217.054 83.9582 216.436 81.429 216.436 78.525H214.436ZM216.519 87.1231C217.954 89.6213 219.902 91.5979 222.355 93.0374L223.367 91.3126C221.22 90.0521 219.518 88.3287 218.253 86.1269L216.519 87.1231ZM222.355 93.0374C224.827 94.4883 227.656 95.2 230.811 95.2V93.2C227.966 93.2 225.495 92.5617 223.367 91.3126L222.355 93.0374ZM230.811 95.2C232.724 95.2 234.631 94.8808 236.527 94.2487L235.895 92.3513C234.191 92.9192 232.498 93.2 230.811 93.2V95.2ZM236.542 94.2435C238.472 93.5656 240.068 92.7118 241.29 91.6568L239.982 90.1432C239.004 90.9882 237.65 91.7344 235.879 92.3565L236.542 94.2435ZM241.269 91.674C241.643 91.3677 242.046 91.225 242.511 91.225V89.225C241.576 89.225 240.728 89.5323 240.003 90.126L241.269 91.674ZM242.582 91.2225C243.057 91.1885 243.402 91.3037 243.686 91.5309L244.936 89.9691C244.22 89.3963 243.364 89.1615 242.44 89.2275L242.582 91.2225ZM243.633 91.4848C244.135 91.9487 244.286 92.3489 244.286 92.7H246.286C246.286 91.6511 245.787 90.7513 244.989 90.0152L243.633 91.4848ZM244.288 92.7712C244.313 93.1104 244.206 93.4108 243.821 93.7318L245.101 95.2682C245.916 94.5892 246.359 93.6896 246.283 92.6288L244.288 92.7712ZM243.814 93.7375C242.272 95.046 240.28 96.1684 237.812 97.0879L238.51 98.9621C241.142 97.9816 243.35 96.754 245.108 95.2625L243.814 93.7375ZM237.828 97.082C235.369 97.9499 233.032 98.375 230.811 98.375V100.375C233.29 100.375 235.853 99.9001 238.494 98.968L237.828 97.082ZM264.84 96.675L264.334 97.5373L264.344 97.5432L264.84 96.675ZM257.34 89.175L256.472 89.6712L256.478 89.6814L257.34 89.175ZM257.265 67.8L256.397 67.3038L256.391 67.3144L257.265 67.8ZM264.54 60.375L265.049 61.2363L265.059 61.23L264.54 60.375ZM283.965 59.775L283.492 60.656L283.499 60.6594L283.505 60.6628L283.965 59.775ZM290.49 65.4L289.672 65.9746L291.49 68.5645V65.4H290.49ZM291.315 41.25L291.988 41.9899L292.006 41.9739L292.023 41.9571L291.315 41.25ZM295.515 41.25L294.808 41.9571L294.825 41.9739L294.843 41.9899L295.515 41.25ZM296.34 78.75L297.34 78.7756L297.34 78.7628V78.75H296.34ZM293.415 89.325L292.553 88.8186L292.551 88.8229L293.415 89.325ZM285.99 96.675L285.494 95.8067L285.488 95.8102L285.99 96.675ZM283.215 92.1L283.73 92.9575L283.735 92.9542L283.215 92.1ZM288.615 86.475L287.748 85.9769L287.744 85.9839L287.74 85.9909L288.615 86.475ZM288.615 70.5L287.736 70.9763L287.742 70.9873L287.748 70.9981L288.615 70.5ZM283.215 64.875L282.701 65.7325L282.709 65.7374L283.215 64.875ZM267.765 64.875L268.272 65.7374L268.272 65.7374L267.765 64.875ZM262.29 70.5L263.158 70.9981L263.162 70.9903L262.29 70.5ZM262.29 86.475L261.423 86.9731L261.423 86.9731L262.29 86.475ZM267.765 92.1L267.245 92.9542L267.252 92.9584L267.259 92.9624L267.765 92.1ZM275.49 98.375C271.699 98.375 268.322 97.5129 265.337 95.8068L264.344 97.5432C267.659 99.4371 271.382 100.375 275.49 100.375V98.375ZM265.347 95.8127C262.344 94.0491 259.966 91.6716 258.203 88.6686L256.478 89.6814C258.414 92.9784 261.037 95.6009 264.334 97.5373L265.347 95.8127ZM258.209 88.6789C256.504 85.6951 255.64 82.2943 255.64 78.45H253.64C253.64 82.6057 254.577 86.3549 256.472 89.6711L258.209 88.6789ZM255.64 78.45C255.64 74.6532 256.48 71.2731 258.14 68.2856L256.391 67.3144C254.551 70.6269 253.64 74.3468 253.64 78.45H255.64ZM258.134 68.2961C259.85 65.2932 262.152 62.9456 265.049 61.2362L264.032 59.5138C260.829 61.4044 258.281 64.0068 256.397 67.3039L258.134 68.2961ZM265.059 61.23C267.94 59.4824 271.208 58.6 274.89 58.6V56.6C270.873 56.6 267.241 57.5676 264.022 59.52L265.059 61.23ZM274.89 58.6C278.091 58.6 280.951 59.2912 283.492 60.656L284.439 58.894C281.58 57.3588 278.39 56.6 274.89 56.6V58.6ZM283.505 60.6628C286.071 61.9932 288.12 63.7641 289.672 65.9746L291.309 64.8254C289.561 62.3359 287.26 60.3568 284.426 58.8872L283.505 60.6628ZM291.49 65.4V43.35H289.49V65.4H291.49ZM291.49 43.35C291.49 42.6674 291.69 42.2611 291.988 41.9899L290.643 40.5101C289.841 41.2389 289.49 42.2326 289.49 43.35H291.49ZM292.023 41.9571C292.367 41.613 292.804 41.425 293.415 41.425V39.425C292.327 39.425 291.364 39.787 290.608 40.5429L292.023 41.9571ZM293.415 41.425C294.027 41.425 294.464 41.613 294.808 41.9571L296.223 40.5429C295.467 39.787 294.504 39.425 293.415 39.425V41.425ZM294.843 41.9899C295.141 42.2611 295.34 42.6674 295.34 43.35H297.34C297.34 42.2326 296.99 41.2389 296.188 40.5101L294.843 41.9899ZM295.34 43.35V78.75H297.34V43.35H295.34ZM295.341 78.7244C295.245 82.4669 294.312 85.8245 292.553 88.8186L294.278 89.8314C296.219 86.5255 297.236 82.8331 297.34 78.7756L295.341 78.7244ZM292.551 88.8229C290.84 91.7686 288.493 94.0931 285.494 95.8068L286.487 97.5432C289.788 95.6569 292.391 93.0814 294.28 89.8271L292.551 88.8229ZM285.488 95.8102C282.554 97.5139 279.23 98.375 275.49 98.375V100.375C279.551 100.375 283.227 99.4361 286.493 97.5398L285.488 95.8102ZM275.49 95.125C278.552 95.125 281.309 94.4103 283.73 92.9575L282.701 91.2425C280.622 92.4897 278.229 93.125 275.49 93.125V95.125ZM283.735 92.9542C286.184 91.464 288.106 89.4616 289.49 86.9591L287.74 85.9909C286.525 88.1884 284.847 89.936 282.695 91.2458L283.735 92.9542ZM289.483 86.9731C290.929 84.4558 291.64 81.6056 291.64 78.45H289.64C289.64 81.2944 289.002 83.7942 287.748 85.9769L289.483 86.9731ZM291.64 78.45C291.64 75.3411 290.927 72.5167 289.483 70.0019L287.748 70.9981C289.004 73.1833 289.64 75.6589 289.64 78.45H291.64ZM289.495 70.0237C288.11 67.4674 286.183 65.4571 283.722 64.0126L282.709 65.7374C284.848 66.9929 286.521 68.7326 287.736 70.9763L289.495 70.0237ZM283.73 64.0175C281.309 62.5646 278.552 61.85 275.49 61.85V63.85C278.229 63.85 280.622 64.4853 282.701 65.7325L283.73 64.0175ZM275.49 61.85C272.475 61.85 269.723 62.5663 267.259 64.0126L268.272 65.7374C270.408 64.4837 272.806 63.85 275.49 63.85V61.85ZM267.259 64.0126C264.802 65.4551 262.853 67.4608 261.419 70.0097L263.162 70.9903C264.428 68.7392 266.129 66.9949 268.272 65.7374L267.259 64.0126ZM261.423 70.0019C259.979 72.5167 259.265 75.3411 259.265 78.45H261.265C261.265 75.6589 261.902 73.1833 263.158 70.9981L261.423 70.0019ZM259.265 78.45C259.265 81.6056 259.977 84.4558 261.423 86.9731L263.158 85.9769C261.904 83.7942 261.265 81.2944 261.265 78.45H259.265ZM261.423 86.9731C262.857 89.4682 264.801 91.466 267.245 92.9542L268.285 91.2458C266.13 89.934 264.424 88.1818 263.158 85.9769L261.423 86.9731ZM267.259 92.9624C269.723 94.4087 272.475 95.125 275.49 95.125V93.125C272.806 93.125 270.408 92.4913 268.272 91.2376L267.259 92.9624Z" fill="#6D6D6D"/>
<g filter="url(#filter1_d_55_4)">
<path d="M15 106H293V111H15V106Z" fill="#D2CAE2"/>
</g>
<path d="M250.754 40C255.384 40 259.123 36.1866 259.123 31.5C259.123 26.8134 255.384 23 250.754 23C246.124 23 242.385 26.8134 242.385 31.5C242.385 36.1866 246.124 40 250.754 40Z" fill="#DED2B2" stroke="#6D6D6D"/>
<path d="M251.446 14.8551L250.967 13.2751L250.489 14.8551L248.785 20.4801L248.59 21.125H249.264H252.671H253.345L253.149 20.4801L251.446 14.8551Z" fill="#DED2B2" stroke="#6D6D6D"/>
<path d="M239.59 19.9686L238.167 19.2029L238.92 20.6499L241.628 25.8522L241.942 26.4556L242.416 25.9728L244.826 23.5233L245.301 23.0406L244.707 22.7213L239.59 19.9686Z" fill="#DED2B2" stroke="#6D6D6D"/>
<path d="M234.851 30.5228L233.326 31L234.851 31.4772L240.383 33.2092L241.033 33.4125V32.7321V29.2679V28.5875L240.383 28.7908L234.851 30.5228Z" fill="#DED2B2" stroke="#6D6D6D"/>
<path d="M266.526 31.4772L268.051 31L266.526 30.5228L260.994 28.7908L260.344 28.5875V29.2679V32.7321V33.4125L260.994 33.2092L266.526 31.4772Z" fill="#DED2B2" stroke="#6D6D6D"/>
<path d="M262.718 20.65L263.471 19.2029L262.048 19.9686L256.931 22.7214L256.337 23.0407L256.812 23.5234L259.221 25.9729L259.696 26.4556L260.01 25.8522L262.718 20.65Z" fill="#DED2B2" stroke="#6D6D6D"/>
<path d="M250.489 47.6449L250.967 49.2249L251.446 47.6449L253.149 42.0199L253.345 41.375H252.671H249.264H248.59L248.785 42.0199L250.489 47.6449Z" fill="#DED2B2" stroke="#6D6D6D"/>
<path d="M262.048 43.1631L263.471 43.9288L262.718 42.4818L260.01 37.2796L259.696 36.6761L259.221 37.1589L256.812 39.6084L256.337 40.0911L256.931 40.4104L262.048 43.1631Z" fill="#DED2B2" stroke="#6D6D6D"/>
<path d="M238.92 42.4817L238.167 43.9288L239.59 43.1631L244.707 40.4103L245.301 40.091L244.826 39.6083L242.416 37.1588L241.942 36.6761L241.628 37.2795L238.92 42.4817Z" fill="#DED2B2" stroke="#6D6D6D"/>
</g>
<defs>
<filter id="filter0_d_55_4" x="0" y="0" width="313" height="131" filterUnits="userSpaceOnUse" color-interpolation-filters="sRGB">
<feFlood flood-opacity="0" result="BackgroundImageFix"/>
<feColorMatrix in="SourceAlpha" type="matrix" values="0 0 0 0 0 0 0 0 0 0 0 0 0 0 0 0 0 0 127 0" result="hardAlpha"/>
<feOffset dy="4"/>
<feGaussianBlur stdDeviation="2"/>
<feComposite in2="hardAlpha" operator="out"/>
<feColorMatrix type="matrix" values="0 0 0 0 0 0 0 0 0 0 0 0 0 0 0 0 0 0 0.25 0"/>
<feBlend mode="normal" in2="BackgroundImageFix" result="effect1_dropShadow_55_4"/>
<feBlend mode="normal" in="SourceGraphic" in2="effect1_dropShadow_55_4" result="shape"/>
</filter>
<filter id="filter1_d_55_4" x="11" y="106" width="286" height="13" filterUnits="userSpaceOnUse" color-interpolation-filters="sRGB">
<feFlood flood-opacity="0" result="BackgroundImageFix"/>
<feColorMatrix in="SourceAlpha" type="matrix" values="0 0 0 0 0 0 0 0 0 0 0 0 0 0 0 0 0 0 127 0" result="hardAlpha"/>
<feOffset dy="4"/>
<feGaussianBlur stdDeviation="2"/>
<feComposite in2="hardAlpha" operator="out"/>
<feColorMatrix type="matrix" values="0 0 0 0 0 0 0 0 0 0 0 0 0 0 0 0 0 0 0.25 0"/>
<feBlend mode="normal" in2="BackgroundImageFix" result="effect1_dropShadow_55_4"/>
<feBlend mode="normal" in="SourceGraphic" in2="effect1_dropShadow_55_4" result="shape"/>
</filter>
</defs>
</svg>
